<?xml version="1.0" standalone="no"?>
<!DOCTYPE svg PUBLIC "-//W3C//DTD SVG 20010904//EN"
 "http://www.w3.org/TR/2001/REC-SVG-20010904/DTD/svg10.dtd">
<svg version="1.0" xmlns="http://www.w3.org/2000/svg"
 width="260.000000pt" height="260.000000pt" viewBox="0 0 260.000000 260.000000"
 preserveAspectRatio="xMidYMid meet">
<metadata>
Created by potrace 1.14, written by Peter Selinger 2001-2017
</metadata>
<g transform="translate(0.000000,260.000000) scale(0.100000,-0.100000)"
fill="#000000" stroke="none">
<path d="M360 1970 l0 -70 180 0 180 0 0 -545 0 -545 85 0 85 0 0 545 0 545
180 0 180 0 0 70 0 70 -445 0 -445 0 0 -70z"/>
<path d="M1710 1754 c-41 -7 -95 -20 -120 -27 l-45 -14 -3 -76 -3 -75 93 30
c107 34 239 47 304 29 88 -24 133 -91 134 -197 l0 -62 -167 -4 c-202 -6 -273
-24 -347 -89 -60 -53 -87 -107 -94 -184 -9 -124 44 -221 147 -269 37 -16 66
-20 146 -20 120 0 187 22 270 89 29 24 56 41 59 38 3 -4 6 -30 6 -60 l0 -53
75 0 75 0 0 353 c0 397 -3 422 -66 495 -85 100 -255 135 -464 96z m360 -599
l0 -85 -52 -41 c-110 -88 -236 -121 -308 -81 -62 33 -86 114 -56 186 34 81 96
104 284 105 l132 1 0 -85z"/>
<path d="M280 495 l0 -65 1060 0 1060 0 0 65 0 65 -1060 0 -1060 0 0 -65z"/>
</g>
</svg>
